<mxfile host="www.draw.io" modified="2020-01-30T15:50:26.491Z" agent="Mozilla/5.0 (Macintosh; Intel Mac OS X 10_14_6) AppleWebKit/537.36 (KHTML, like Gecko) Chrome/78.0.3904.108 Safari/537.36" etag="BycppeX0cVra7eKGK2cO" version="12.6.1" type="github">
  <diagram id="C5RBs43oDa-KdzZeNtuy" name="Page-1">
    <mxGraphModel dx="1773" dy="505" grid="1" gridSize="10" guides="1" tooltips="1" connect="1" arrows="1" fold="1" page="1" pageScale="1" pageWidth="827" pageHeight="1169" math="0" shadow="0">
      <root>
        <mxCell id="WIyWlLk6GJQsqaUBKTNV-0"/>
        <mxCell id="WIyWlLk6GJQsqaUBKTNV-1" parent="WIyWlLk6GJQsqaUBKTNV-0"/>
        <mxCell id="0NTEbmVAoTEjCiHu5IEs-0" value="Employee" style="rounded=0;whiteSpace=wrap;html=1;fillColor=#f8cecc;strokeColor=#b85450;" parent="WIyWlLk6GJQsqaUBKTNV-1" vertex="1">
          <mxGeometry x="90" y="135" width="90" height="30" as="geometry"/>
        </mxCell>
        <mxCell id="0NTEbmVAoTEjCiHu5IEs-1" value="ID&lt;br&gt;" style="ellipse;whiteSpace=wrap;html=1;fillColor=#d5e8d4;strokeColor=#82b366;" parent="WIyWlLk6GJQsqaUBKTNV-1" vertex="1">
          <mxGeometry x="60" y="45" width="60" height="40" as="geometry"/>
        </mxCell>
        <mxCell id="0NTEbmVAoTEjCiHu5IEs-3" value="" style="endArrow=none;html=1;entryX=0.25;entryY=0;entryDx=0;entryDy=0;" parent="WIyWlLk6GJQsqaUBKTNV-1" source="0NTEbmVAoTEjCiHu5IEs-1" target="0NTEbmVAoTEjCiHu5IEs-0" edge="1">
          <mxGeometry width="50" height="50" relative="1" as="geometry">
            <mxPoint x="170" y="290" as="sourcePoint"/>
            <mxPoint x="220" y="190" as="targetPoint"/>
          </mxGeometry>
        </mxCell>
        <mxCell id="0NTEbmVAoTEjCiHu5IEs-4" value="Email Address" style="ellipse;whiteSpace=wrap;html=1;fillColor=#d5e8d4;strokeColor=#82b366;" parent="WIyWlLk6GJQsqaUBKTNV-1" vertex="1">
          <mxGeometry x="150" y="45" width="80" height="40" as="geometry"/>
        </mxCell>
        <mxCell id="0NTEbmVAoTEjCiHu5IEs-5" value="" style="endArrow=none;html=1;entryX=0.375;entryY=0.95;entryDx=0;entryDy=0;entryPerimeter=0;exitX=0.5;exitY=0;exitDx=0;exitDy=0;" parent="WIyWlLk6GJQsqaUBKTNV-1" source="0NTEbmVAoTEjCiHu5IEs-0" target="0NTEbmVAoTEjCiHu5IEs-4" edge="1">
          <mxGeometry width="50" height="50" relative="1" as="geometry">
            <mxPoint x="170" y="290" as="sourcePoint"/>
            <mxPoint x="220" y="240" as="targetPoint"/>
          </mxGeometry>
        </mxCell>
        <mxCell id="0NTEbmVAoTEjCiHu5IEs-6" value="Name" style="ellipse;whiteSpace=wrap;html=1;fillColor=#d5e8d4;strokeColor=#82b366;" parent="WIyWlLk6GJQsqaUBKTNV-1" vertex="1">
          <mxGeometry x="20" y="220" width="60" height="40" as="geometry"/>
        </mxCell>
        <mxCell id="0NTEbmVAoTEjCiHu5IEs-7" value="" style="endArrow=none;html=1;exitX=1;exitY=0;exitDx=0;exitDy=0;entryX=0.167;entryY=1.033;entryDx=0;entryDy=0;entryPerimeter=0;" parent="WIyWlLk6GJQsqaUBKTNV-1" source="0NTEbmVAoTEjCiHu5IEs-6" target="0NTEbmVAoTEjCiHu5IEs-0" edge="1">
          <mxGeometry width="50" height="50" relative="1" as="geometry">
            <mxPoint x="130" y="370" as="sourcePoint"/>
            <mxPoint x="207" y="219" as="targetPoint"/>
          </mxGeometry>
        </mxCell>
        <mxCell id="0NTEbmVAoTEjCiHu5IEs-8" value="Birth Date" style="ellipse;whiteSpace=wrap;html=1;fillColor=#d5e8d4;strokeColor=#82b366;" parent="WIyWlLk6GJQsqaUBKTNV-1" vertex="1">
          <mxGeometry x="-30" y="110" width="70" height="30" as="geometry"/>
        </mxCell>
        <mxCell id="0NTEbmVAoTEjCiHu5IEs-10" value="" style="endArrow=none;html=1;exitX=0.629;exitY=1;exitDx=0;exitDy=0;exitPerimeter=0;entryX=0;entryY=0.5;entryDx=0;entryDy=0;" parent="WIyWlLk6GJQsqaUBKTNV-1" source="0NTEbmVAoTEjCiHu5IEs-8" target="0NTEbmVAoTEjCiHu5IEs-0" edge="1">
          <mxGeometry width="50" height="50" relative="1" as="geometry">
            <mxPoint x="130" y="370" as="sourcePoint"/>
            <mxPoint x="230" y="220" as="targetPoint"/>
          </mxGeometry>
        </mxCell>
        <mxCell id="0NTEbmVAoTEjCiHu5IEs-11" value="Age" style="ellipse;whiteSpace=wrap;html=1;fillColor=#d5e8d4;strokeColor=#82b366;" parent="WIyWlLk6GJQsqaUBKTNV-1" vertex="1">
          <mxGeometry x="180" y="225" width="60" height="30" as="geometry"/>
        </mxCell>
        <mxCell id="0NTEbmVAoTEjCiHu5IEs-13" value="" style="endArrow=none;html=1;entryX=0.75;entryY=1;entryDx=0;entryDy=0;exitX=0;exitY=0;exitDx=0;exitDy=0;" parent="WIyWlLk6GJQsqaUBKTNV-1" source="0NTEbmVAoTEjCiHu5IEs-11" target="0NTEbmVAoTEjCiHu5IEs-0" edge="1">
          <mxGeometry width="50" height="50" relative="1" as="geometry">
            <mxPoint x="130" y="380" as="sourcePoint"/>
            <mxPoint x="180" y="330" as="targetPoint"/>
          </mxGeometry>
        </mxCell>
        <mxCell id="0NTEbmVAoTEjCiHu5IEs-15" value="Belongs to&lt;br&gt;" style="rhombus;whiteSpace=wrap;html=1;fillColor=#dae8fc;strokeColor=#6c8ebf;" parent="WIyWlLk6GJQsqaUBKTNV-1" vertex="1">
          <mxGeometry x="260" y="130" width="80" height="40" as="geometry"/>
        </mxCell>
        <mxCell id="0NTEbmVAoTEjCiHu5IEs-16" value="" style="endArrow=none;html=1;entryX=0;entryY=0.5;entryDx=0;entryDy=0;exitX=1;exitY=0.5;exitDx=0;exitDy=0;" parent="WIyWlLk6GJQsqaUBKTNV-1" source="0NTEbmVAoTEjCiHu5IEs-0" target="0NTEbmVAoTEjCiHu5IEs-15" edge="1">
          <mxGeometry width="50" height="50" relative="1" as="geometry">
            <mxPoint x="130" y="380" as="sourcePoint"/>
            <mxPoint x="290" y="210" as="targetPoint"/>
          </mxGeometry>
        </mxCell>
        <mxCell id="0NTEbmVAoTEjCiHu5IEs-18" value="" style="endArrow=none;html=1;exitX=1;exitY=0.5;exitDx=0;exitDy=0;entryX=0;entryY=0.5;entryDx=0;entryDy=0;" parent="WIyWlLk6GJQsqaUBKTNV-1" source="0NTEbmVAoTEjCiHu5IEs-15" target="0NTEbmVAoTEjCiHu5IEs-19" edge="1">
          <mxGeometry width="50" height="50" relative="1" as="geometry">
            <mxPoint x="393" y="200" as="sourcePoint"/>
            <mxPoint x="450" y="150" as="targetPoint"/>
          </mxGeometry>
        </mxCell>
        <mxCell id="0NTEbmVAoTEjCiHu5IEs-19" value="Department" style="rounded=0;whiteSpace=wrap;html=1;fillColor=#f8cecc;strokeColor=#b85450;" parent="WIyWlLk6GJQsqaUBKTNV-1" vertex="1">
          <mxGeometry x="390" y="135" width="80" height="35" as="geometry"/>
        </mxCell>
        <mxCell id="0NTEbmVAoTEjCiHu5IEs-21" value="Department ID" style="ellipse;whiteSpace=wrap;html=1;fillColor=#d5e8d4;strokeColor=#82b366;" parent="WIyWlLk6GJQsqaUBKTNV-1" vertex="1">
          <mxGeometry x="350" y="40" width="80" height="50" as="geometry"/>
        </mxCell>
        <mxCell id="0NTEbmVAoTEjCiHu5IEs-22" value="Name" style="ellipse;whiteSpace=wrap;html=1;fillColor=#d5e8d4;strokeColor=#82b366;" parent="WIyWlLk6GJQsqaUBKTNV-1" vertex="1">
          <mxGeometry x="450" y="50" width="50" height="30" as="geometry"/>
        </mxCell>
        <mxCell id="0NTEbmVAoTEjCiHu5IEs-23" value="Chair&#39;s Name" style="ellipse;whiteSpace=wrap;html=1;fillColor=#d5e8d4;strokeColor=#82b366;" parent="WIyWlLk6GJQsqaUBKTNV-1" vertex="1">
          <mxGeometry x="400" y="210" width="70" height="30" as="geometry"/>
        </mxCell>
        <mxCell id="0NTEbmVAoTEjCiHu5IEs-24" value="" style="endArrow=none;html=1;entryX=0.5;entryY=1;entryDx=0;entryDy=0;exitX=0.25;exitY=0;exitDx=0;exitDy=0;" parent="WIyWlLk6GJQsqaUBKTNV-1" source="0NTEbmVAoTEjCiHu5IEs-19" target="0NTEbmVAoTEjCiHu5IEs-21" edge="1">
          <mxGeometry width="50" height="50" relative="1" as="geometry">
            <mxPoint x="90" y="380" as="sourcePoint"/>
            <mxPoint x="360" y="160" as="targetPoint"/>
          </mxGeometry>
        </mxCell>
        <mxCell id="0NTEbmVAoTEjCiHu5IEs-25" value="" style="endArrow=none;html=1;exitX=0.675;exitY=0.033;exitDx=0;exitDy=0;exitPerimeter=0;entryX=0.5;entryY=1;entryDx=0;entryDy=0;" parent="WIyWlLk6GJQsqaUBKTNV-1" source="0NTEbmVAoTEjCiHu5IEs-19" target="0NTEbmVAoTEjCiHu5IEs-22" edge="1">
          <mxGeometry width="50" height="50" relative="1" as="geometry">
            <mxPoint x="410" y="150.01" as="sourcePoint"/>
            <mxPoint x="450" y="100" as="targetPoint"/>
          </mxGeometry>
        </mxCell>
        <mxCell id="0NTEbmVAoTEjCiHu5IEs-26" value="" style="endArrow=none;html=1;entryX=0.5;entryY=1;entryDx=0;entryDy=0;exitX=0.5;exitY=0;exitDx=0;exitDy=0;" parent="WIyWlLk6GJQsqaUBKTNV-1" source="0NTEbmVAoTEjCiHu5IEs-23" target="0NTEbmVAoTEjCiHu5IEs-19" edge="1">
          <mxGeometry width="50" height="50" relative="1" as="geometry">
            <mxPoint x="420" y="160.01" as="sourcePoint"/>
            <mxPoint x="410" y="110" as="targetPoint"/>
          </mxGeometry>
        </mxCell>
        <mxCell id="0NTEbmVAoTEjCiHu5IEs-27" value="has" style="rhombus;whiteSpace=wrap;html=1;fillColor=#dae8fc;strokeColor=#6c8ebf;" parent="WIyWlLk6GJQsqaUBKTNV-1" vertex="1">
          <mxGeometry x="510" y="135" width="50" height="30" as="geometry"/>
        </mxCell>
        <mxCell id="0NTEbmVAoTEjCiHu5IEs-29" value="" style="endArrow=none;html=1;entryX=1;entryY=0.5;entryDx=0;entryDy=0;exitX=0;exitY=0.5;exitDx=0;exitDy=0;" parent="WIyWlLk6GJQsqaUBKTNV-1" source="0NTEbmVAoTEjCiHu5IEs-27" target="0NTEbmVAoTEjCiHu5IEs-19" edge="1">
          <mxGeometry width="50" height="50" relative="1" as="geometry">
            <mxPoint x="470" y="170.01" as="sourcePoint"/>
            <mxPoint x="460" y="120" as="targetPoint"/>
          </mxGeometry>
        </mxCell>
        <mxCell id="0NTEbmVAoTEjCiHu5IEs-30" value="Address" style="rounded=0;whiteSpace=wrap;html=1;fillColor=#f8cecc;strokeColor=#b85450;" parent="WIyWlLk6GJQsqaUBKTNV-1" vertex="1">
          <mxGeometry x="610" y="140" width="60" height="20" as="geometry"/>
        </mxCell>
        <mxCell id="0NTEbmVAoTEjCiHu5IEs-31" value="" style="endArrow=none;html=1;entryX=1;entryY=0.5;entryDx=0;entryDy=0;exitX=0;exitY=0.5;exitDx=0;exitDy=0;" parent="WIyWlLk6GJQsqaUBKTNV-1" source="0NTEbmVAoTEjCiHu5IEs-30" target="0NTEbmVAoTEjCiHu5IEs-27" edge="1">
          <mxGeometry width="50" height="50" relative="1" as="geometry">
            <mxPoint x="420" y="180.01" as="sourcePoint"/>
            <mxPoint x="410" y="130" as="targetPoint"/>
          </mxGeometry>
        </mxCell>
        <mxCell id="0NTEbmVAoTEjCiHu5IEs-32" value="street" style="ellipse;whiteSpace=wrap;html=1;fillColor=#d5e8d4;strokeColor=#82b366;" parent="WIyWlLk6GJQsqaUBKTNV-1" vertex="1">
          <mxGeometry x="550" y="50" width="60" height="30" as="geometry"/>
        </mxCell>
        <mxCell id="0NTEbmVAoTEjCiHu5IEs-33" value="city" style="ellipse;whiteSpace=wrap;html=1;fillColor=#d5e8d4;strokeColor=#82b366;" parent="WIyWlLk6GJQsqaUBKTNV-1" vertex="1">
          <mxGeometry x="650" y="55" width="50" height="20" as="geometry"/>
        </mxCell>
        <mxCell id="0NTEbmVAoTEjCiHu5IEs-34" value="state" style="ellipse;whiteSpace=wrap;html=1;fillColor=#d5e8d4;strokeColor=#82b366;" parent="WIyWlLk6GJQsqaUBKTNV-1" vertex="1">
          <mxGeometry x="600" y="195" width="50" height="30" as="geometry"/>
        </mxCell>
        <mxCell id="0NTEbmVAoTEjCiHu5IEs-35" value="zip code" style="ellipse;whiteSpace=wrap;html=1;fillColor=#d5e8d4;strokeColor=#82b366;" parent="WIyWlLk6GJQsqaUBKTNV-1" vertex="1">
          <mxGeometry x="660" y="200" width="60" height="40" as="geometry"/>
        </mxCell>
        <mxCell id="0NTEbmVAoTEjCiHu5IEs-37" value="" style="endArrow=none;html=1;exitX=0.117;exitY=0.05;exitDx=0;exitDy=0;exitPerimeter=0;entryX=0.5;entryY=1;entryDx=0;entryDy=0;" parent="WIyWlLk6GJQsqaUBKTNV-1" source="0NTEbmVAoTEjCiHu5IEs-30" target="0NTEbmVAoTEjCiHu5IEs-32" edge="1">
          <mxGeometry width="50" height="50" relative="1" as="geometry">
            <mxPoint x="430" y="190.01" as="sourcePoint"/>
            <mxPoint x="550" y="130" as="targetPoint"/>
          </mxGeometry>
        </mxCell>
        <mxCell id="0NTEbmVAoTEjCiHu5IEs-38" value="" style="endArrow=none;html=1;exitX=0.633;exitY=-0.05;exitDx=0;exitDy=0;exitPerimeter=0;entryX=0.5;entryY=1;entryDx=0;entryDy=0;" parent="WIyWlLk6GJQsqaUBKTNV-1" source="0NTEbmVAoTEjCiHu5IEs-30" target="0NTEbmVAoTEjCiHu5IEs-33" edge="1">
          <mxGeometry width="50" height="50" relative="1" as="geometry">
            <mxPoint x="440" y="200.01" as="sourcePoint"/>
            <mxPoint x="680" y="100" as="targetPoint"/>
          </mxGeometry>
        </mxCell>
        <mxCell id="0NTEbmVAoTEjCiHu5IEs-39" value="" style="endArrow=none;html=1;entryX=0.25;entryY=1;entryDx=0;entryDy=0;exitX=0.5;exitY=0;exitDx=0;exitDy=0;" parent="WIyWlLk6GJQsqaUBKTNV-1" source="0NTEbmVAoTEjCiHu5IEs-34" target="0NTEbmVAoTEjCiHu5IEs-30" edge="1">
          <mxGeometry width="50" height="50" relative="1" as="geometry">
            <mxPoint x="450" y="210.01" as="sourcePoint"/>
            <mxPoint x="440" y="160" as="targetPoint"/>
          </mxGeometry>
        </mxCell>
        <mxCell id="0NTEbmVAoTEjCiHu5IEs-40" value="" style="endArrow=none;html=1;entryX=0.75;entryY=1;entryDx=0;entryDy=0;" parent="WIyWlLk6GJQsqaUBKTNV-1" source="0NTEbmVAoTEjCiHu5IEs-35" target="0NTEbmVAoTEjCiHu5IEs-30" edge="1">
          <mxGeometry width="50" height="50" relative="1" as="geometry">
            <mxPoint x="460" y="220.01" as="sourcePoint"/>
            <mxPoint x="450" y="170" as="targetPoint"/>
          </mxGeometry>
        </mxCell>
        <mxCell id="0NTEbmVAoTEjCiHu5IEs-41" value="Doctor" style="rounded=0;whiteSpace=wrap;html=1;fillColor=#f8cecc;strokeColor=#b85450;" parent="WIyWlLk6GJQsqaUBKTNV-1" vertex="1">
          <mxGeometry x="40" y="370" width="90" height="30" as="geometry"/>
        </mxCell>
        <mxCell id="0NTEbmVAoTEjCiHu5IEs-42" value="speciality" style="ellipse;whiteSpace=wrap;html=1;fillColor=#d5e8d4;strokeColor=#82b366;" parent="WIyWlLk6GJQsqaUBKTNV-1" vertex="1">
          <mxGeometry x="-40" y="300" width="80" height="50" as="geometry"/>
        </mxCell>
        <mxCell id="0NTEbmVAoTEjCiHu5IEs-43" value="office number" style="ellipse;whiteSpace=wrap;html=1;fillColor=#d5e8d4;strokeColor=#82b366;" parent="WIyWlLk6GJQsqaUBKTNV-1" vertex="1">
          <mxGeometry y="430" width="80" height="50" as="geometry"/>
        </mxCell>
        <mxCell id="0NTEbmVAoTEjCiHu5IEs-44" value="" style="endArrow=none;html=1;entryX=0.588;entryY=1.02;entryDx=0;entryDy=0;entryPerimeter=0;" parent="WIyWlLk6GJQsqaUBKTNV-1" source="0NTEbmVAoTEjCiHu5IEs-41" target="0NTEbmVAoTEjCiHu5IEs-42" edge="1">
          <mxGeometry width="50" height="50" relative="1" as="geometry">
            <mxPoint x="530" y="230.01" as="sourcePoint"/>
            <mxPoint x="520" y="180" as="targetPoint"/>
          </mxGeometry>
        </mxCell>
        <mxCell id="0NTEbmVAoTEjCiHu5IEs-45" value="" style="endArrow=none;html=1;entryX=0.65;entryY=0.02;entryDx=0;entryDy=0;exitX=0.156;exitY=1.1;exitDx=0;exitDy=0;exitPerimeter=0;entryPerimeter=0;" parent="WIyWlLk6GJQsqaUBKTNV-1" source="0NTEbmVAoTEjCiHu5IEs-41" target="0NTEbmVAoTEjCiHu5IEs-43" edge="1">
          <mxGeometry width="50" height="50" relative="1" as="geometry">
            <mxPoint x="540" y="240.01" as="sourcePoint"/>
            <mxPoint x="530" y="190" as="targetPoint"/>
          </mxGeometry>
        </mxCell>
        <mxCell id="0NTEbmVAoTEjCiHu5IEs-46" value="is a" style="shape=hexagon;perimeter=hexagonPerimeter2;whiteSpace=wrap;html=1;fillColor=#dae8fc;strokeColor=#6c8ebf;" parent="WIyWlLk6GJQsqaUBKTNV-1" vertex="1">
          <mxGeometry x="95" y="255" width="55" height="35" as="geometry"/>
        </mxCell>
        <mxCell id="0NTEbmVAoTEjCiHu5IEs-47" value="" style="endArrow=none;html=1;entryX=0.389;entryY=1.033;entryDx=0;entryDy=0;exitX=0.5;exitY=0;exitDx=0;exitDy=0;entryPerimeter=0;" parent="WIyWlLk6GJQsqaUBKTNV-1" source="0NTEbmVAoTEjCiHu5IEs-46" target="0NTEbmVAoTEjCiHu5IEs-0" edge="1">
          <mxGeometry width="50" height="50" relative="1" as="geometry">
            <mxPoint x="550" y="250.01" as="sourcePoint"/>
            <mxPoint x="540" y="200" as="targetPoint"/>
          </mxGeometry>
        </mxCell>
        <mxCell id="0NTEbmVAoTEjCiHu5IEs-48" value="" style="endArrow=none;html=1;entryX=0.236;entryY=1.029;entryDx=0;entryDy=0;exitX=0.5;exitY=0;exitDx=0;exitDy=0;entryPerimeter=0;" parent="WIyWlLk6GJQsqaUBKTNV-1" source="0NTEbmVAoTEjCiHu5IEs-41" target="0NTEbmVAoTEjCiHu5IEs-46" edge="1">
          <mxGeometry width="50" height="50" relative="1" as="geometry">
            <mxPoint x="560" y="260.01" as="sourcePoint"/>
            <mxPoint x="550" y="210" as="targetPoint"/>
          </mxGeometry>
        </mxCell>
        <mxCell id="0NTEbmVAoTEjCiHu5IEs-50" value="send" style="rhombus;whiteSpace=wrap;html=1;fillColor=#dae8fc;strokeColor=#6c8ebf;" parent="WIyWlLk6GJQsqaUBKTNV-1" vertex="1">
          <mxGeometry x="80" y="470" width="40" height="40" as="geometry"/>
        </mxCell>
        <mxCell id="0NTEbmVAoTEjCiHu5IEs-51" value="" style="endArrow=none;html=1;entryX=0.5;entryY=1;entryDx=0;entryDy=0;exitX=0;exitY=0;exitDx=0;exitDy=0;" parent="WIyWlLk6GJQsqaUBKTNV-1" source="0NTEbmVAoTEjCiHu5IEs-50" target="0NTEbmVAoTEjCiHu5IEs-41" edge="1">
          <mxGeometry width="50" height="50" relative="1" as="geometry">
            <mxPoint x="570" y="270.01" as="sourcePoint"/>
            <mxPoint x="560" y="220" as="targetPoint"/>
          </mxGeometry>
        </mxCell>
        <mxCell id="0NTEbmVAoTEjCiHu5IEs-52" value="" style="endArrow=none;html=1;entryX=0.75;entryY=1;entryDx=0;entryDy=0;exitX=1;exitY=0;exitDx=0;exitDy=0;" parent="WIyWlLk6GJQsqaUBKTNV-1" source="0NTEbmVAoTEjCiHu5IEs-50" target="0NTEbmVAoTEjCiHu5IEs-41" edge="1">
          <mxGeometry width="50" height="50" relative="1" as="geometry">
            <mxPoint x="580" y="280.01" as="sourcePoint"/>
            <mxPoint x="570" y="230" as="targetPoint"/>
          </mxGeometry>
        </mxCell>
        <mxCell id="0NTEbmVAoTEjCiHu5IEs-53" value="message" style="rounded=0;whiteSpace=wrap;html=1;fillColor=#f8cecc;strokeColor=#b85450;" parent="WIyWlLk6GJQsqaUBKTNV-1" vertex="1">
          <mxGeometry x="60" y="570" width="80" height="20" as="geometry"/>
        </mxCell>
        <mxCell id="0NTEbmVAoTEjCiHu5IEs-54" value="" style="endArrow=none;html=1;entryX=0.5;entryY=1;entryDx=0;entryDy=0;exitX=0.5;exitY=0;exitDx=0;exitDy=0;" parent="WIyWlLk6GJQsqaUBKTNV-1" source="0NTEbmVAoTEjCiHu5IEs-53" target="0NTEbmVAoTEjCiHu5IEs-50" edge="1">
          <mxGeometry width="50" height="50" relative="1" as="geometry">
            <mxPoint x="590" y="290.01" as="sourcePoint"/>
            <mxPoint x="580" y="240" as="targetPoint"/>
          </mxGeometry>
        </mxCell>
        <mxCell id="0NTEbmVAoTEjCiHu5IEs-55" value="title" style="ellipse;whiteSpace=wrap;html=1;fillColor=#d5e8d4;strokeColor=#82b366;" parent="WIyWlLk6GJQsqaUBKTNV-1" vertex="1">
          <mxGeometry x="20" y="650" width="60" height="30" as="geometry"/>
        </mxCell>
        <mxCell id="0NTEbmVAoTEjCiHu5IEs-56" value="content" style="ellipse;whiteSpace=wrap;html=1;fillColor=#d5e8d4;strokeColor=#82b366;" parent="WIyWlLk6GJQsqaUBKTNV-1" vertex="1">
          <mxGeometry x="130" y="645" width="60" height="40" as="geometry"/>
        </mxCell>
        <mxCell id="0NTEbmVAoTEjCiHu5IEs-57" value="" style="endArrow=none;html=1;entryX=0.125;entryY=1.05;entryDx=0;entryDy=0;exitX=0.617;exitY=-0.067;exitDx=0;exitDy=0;exitPerimeter=0;entryPerimeter=0;" parent="WIyWlLk6GJQsqaUBKTNV-1" source="0NTEbmVAoTEjCiHu5IEs-55" target="0NTEbmVAoTEjCiHu5IEs-53" edge="1">
          <mxGeometry width="50" height="50" relative="1" as="geometry">
            <mxPoint x="600" y="300.01" as="sourcePoint"/>
            <mxPoint x="590" y="250" as="targetPoint"/>
          </mxGeometry>
        </mxCell>
        <mxCell id="0NTEbmVAoTEjCiHu5IEs-58" value="" style="endArrow=none;html=1;entryX=0.75;entryY=1;entryDx=0;entryDy=0;exitX=0.267;exitY=0.05;exitDx=0;exitDy=0;exitPerimeter=0;" parent="WIyWlLk6GJQsqaUBKTNV-1" source="0NTEbmVAoTEjCiHu5IEs-56" target="0NTEbmVAoTEjCiHu5IEs-53" edge="1">
          <mxGeometry width="50" height="50" relative="1" as="geometry">
            <mxPoint x="610" y="310.01" as="sourcePoint"/>
            <mxPoint x="600" y="260" as="targetPoint"/>
          </mxGeometry>
        </mxCell>
        <mxCell id="0NTEbmVAoTEjCiHu5IEs-59" value="Nurse" style="rounded=0;whiteSpace=wrap;html=1;fillColor=#f8cecc;strokeColor=#b85450;" parent="WIyWlLk6GJQsqaUBKTNV-1" vertex="1">
          <mxGeometry x="165" y="330" width="90" height="25" as="geometry"/>
        </mxCell>
        <mxCell id="0NTEbmVAoTEjCiHu5IEs-60" value="" style="endArrow=none;html=1;entryX=0.745;entryY=1.057;entryDx=0;entryDy=0;exitX=0.25;exitY=0;exitDx=0;exitDy=0;entryPerimeter=0;" parent="WIyWlLk6GJQsqaUBKTNV-1" source="0NTEbmVAoTEjCiHu5IEs-59" target="0NTEbmVAoTEjCiHu5IEs-46" edge="1">
          <mxGeometry width="50" height="50" relative="1" as="geometry">
            <mxPoint x="620" y="320.01" as="sourcePoint"/>
            <mxPoint x="610" y="270" as="targetPoint"/>
          </mxGeometry>
        </mxCell>
        <mxCell id="0NTEbmVAoTEjCiHu5IEs-61" value="governs" style="rhombus;whiteSpace=wrap;html=1;fillColor=#dae8fc;strokeColor=#6c8ebf;" parent="WIyWlLk6GJQsqaUBKTNV-1" vertex="1">
          <mxGeometry x="290" y="317.5" width="60" height="50" as="geometry"/>
        </mxCell>
        <mxCell id="0NTEbmVAoTEjCiHu5IEs-62" value="" style="endArrow=none;html=1;entryX=1;entryY=0.5;entryDx=0;entryDy=0;exitX=0;exitY=0.5;exitDx=0;exitDy=0;" parent="WIyWlLk6GJQsqaUBKTNV-1" source="0NTEbmVAoTEjCiHu5IEs-61" target="0NTEbmVAoTEjCiHu5IEs-59" edge="1">
          <mxGeometry width="50" height="50" relative="1" as="geometry">
            <mxPoint x="630" y="330.01" as="sourcePoint"/>
            <mxPoint x="620" y="280" as="targetPoint"/>
          </mxGeometry>
        </mxCell>
        <mxCell id="0NTEbmVAoTEjCiHu5IEs-63" value="rooms" style="rounded=0;whiteSpace=wrap;html=1;fillColor=#f8cecc;strokeColor=#b85450;" parent="WIyWlLk6GJQsqaUBKTNV-1" vertex="1">
          <mxGeometry x="383.5" y="327.5" width="60" height="30" as="geometry"/>
        </mxCell>
        <mxCell id="0NTEbmVAoTEjCiHu5IEs-64" value="" style="endArrow=none;html=1;entryX=1;entryY=0.5;entryDx=0;entryDy=0;exitX=0;exitY=0.5;exitDx=0;exitDy=0;" parent="WIyWlLk6GJQsqaUBKTNV-1" source="0NTEbmVAoTEjCiHu5IEs-63" target="0NTEbmVAoTEjCiHu5IEs-61" edge="1">
          <mxGeometry width="50" height="50" relative="1" as="geometry">
            <mxPoint x="640" y="340.01" as="sourcePoint"/>
            <mxPoint x="630" y="290" as="targetPoint"/>
          </mxGeometry>
        </mxCell>
        <mxCell id="0NTEbmVAoTEjCiHu5IEs-65" value="ID" style="ellipse;whiteSpace=wrap;html=1;fillColor=#d5e8d4;strokeColor=#82b366;" parent="WIyWlLk6GJQsqaUBKTNV-1" vertex="1">
          <mxGeometry x="300" y="257.5" width="50" height="30" as="geometry"/>
        </mxCell>
        <mxCell id="0NTEbmVAoTEjCiHu5IEs-66" value="availability" style="ellipse;whiteSpace=wrap;html=1;fillColor=#d5e8d4;strokeColor=#82b366;" parent="WIyWlLk6GJQsqaUBKTNV-1" vertex="1">
          <mxGeometry x="373.5" y="252.5" width="80" height="40" as="geometry"/>
        </mxCell>
        <mxCell id="0NTEbmVAoTEjCiHu5IEs-67" value="type" style="ellipse;whiteSpace=wrap;html=1;fillColor=#d5e8d4;strokeColor=#82b366;" parent="WIyWlLk6GJQsqaUBKTNV-1" vertex="1">
          <mxGeometry x="480" y="257.5" width="50" height="30" as="geometry"/>
        </mxCell>
        <mxCell id="0NTEbmVAoTEjCiHu5IEs-68" value="" style="endArrow=none;html=1;entryX=0.5;entryY=1;entryDx=0;entryDy=0;exitX=0;exitY=0;exitDx=0;exitDy=0;" parent="WIyWlLk6GJQsqaUBKTNV-1" source="0NTEbmVAoTEjCiHu5IEs-63" target="0NTEbmVAoTEjCiHu5IEs-65" edge="1">
          <mxGeometry width="50" height="50" relative="1" as="geometry">
            <mxPoint x="650" y="350.01" as="sourcePoint"/>
            <mxPoint x="640" y="300" as="targetPoint"/>
          </mxGeometry>
        </mxCell>
        <mxCell id="0NTEbmVAoTEjCiHu5IEs-69" value="" style="endArrow=none;html=1;entryX=0.5;entryY=1;entryDx=0;entryDy=0;exitX=0.5;exitY=0;exitDx=0;exitDy=0;" parent="WIyWlLk6GJQsqaUBKTNV-1" source="0NTEbmVAoTEjCiHu5IEs-63" target="0NTEbmVAoTEjCiHu5IEs-66" edge="1">
          <mxGeometry width="50" height="50" relative="1" as="geometry">
            <mxPoint x="660" y="360.01" as="sourcePoint"/>
            <mxPoint x="650" y="310" as="targetPoint"/>
          </mxGeometry>
        </mxCell>
        <mxCell id="0NTEbmVAoTEjCiHu5IEs-70" value="" style="endArrow=none;html=1;entryX=0;entryY=1;entryDx=0;entryDy=0;exitX=1;exitY=0;exitDx=0;exitDy=0;" parent="WIyWlLk6GJQsqaUBKTNV-1" source="0NTEbmVAoTEjCiHu5IEs-63" target="0NTEbmVAoTEjCiHu5IEs-67" edge="1">
          <mxGeometry width="50" height="50" relative="1" as="geometry">
            <mxPoint x="670" y="370.01" as="sourcePoint"/>
            <mxPoint x="660" y="320" as="targetPoint"/>
          </mxGeometry>
        </mxCell>
        <mxCell id="0NTEbmVAoTEjCiHu5IEs-71" value="is assigned" style="rhombus;whiteSpace=wrap;html=1;fillColor=#dae8fc;strokeColor=#6c8ebf;" parent="WIyWlLk6GJQsqaUBKTNV-1" vertex="1">
          <mxGeometry x="371.75" y="390" width="83.5" height="60" as="geometry"/>
        </mxCell>
        <mxCell id="0NTEbmVAoTEjCiHu5IEs-72" value="" style="endArrow=none;html=1;entryX=0.5;entryY=1;entryDx=0;entryDy=0;exitX=0.5;exitY=0;exitDx=0;exitDy=0;" parent="WIyWlLk6GJQsqaUBKTNV-1" source="0NTEbmVAoTEjCiHu5IEs-71" target="0NTEbmVAoTEjCiHu5IEs-63" edge="1">
          <mxGeometry width="50" height="50" relative="1" as="geometry">
            <mxPoint x="680" y="380.01" as="sourcePoint"/>
            <mxPoint x="670" y="330" as="targetPoint"/>
          </mxGeometry>
        </mxCell>
        <mxCell id="0NTEbmVAoTEjCiHu5IEs-73" value="patient" style="rounded=0;whiteSpace=wrap;html=1;fillColor=#f8cecc;strokeColor=#b85450;" parent="WIyWlLk6GJQsqaUBKTNV-1" vertex="1">
          <mxGeometry x="371.75" y="480" width="83.5" height="30" as="geometry"/>
        </mxCell>
        <mxCell id="0NTEbmVAoTEjCiHu5IEs-74" value="" style="endArrow=none;html=1;entryX=0.5;entryY=1;entryDx=0;entryDy=0;exitX=0.5;exitY=0;exitDx=0;exitDy=0;" parent="WIyWlLk6GJQsqaUBKTNV-1" source="0NTEbmVAoTEjCiHu5IEs-73" target="0NTEbmVAoTEjCiHu5IEs-71" edge="1">
          <mxGeometry width="50" height="50" relative="1" as="geometry">
            <mxPoint x="690" y="390.01" as="sourcePoint"/>
            <mxPoint x="680" y="340" as="targetPoint"/>
          </mxGeometry>
        </mxCell>
        <mxCell id="0NTEbmVAoTEjCiHu5IEs-75" value="name" style="ellipse;whiteSpace=wrap;html=1;fillColor=#d5e8d4;strokeColor=#82b366;" parent="WIyWlLk6GJQsqaUBKTNV-1" vertex="1">
          <mxGeometry x="288.25" y="600" width="51.75" height="20" as="geometry"/>
        </mxCell>
        <mxCell id="0NTEbmVAoTEjCiHu5IEs-76" value="email address" style="ellipse;whiteSpace=wrap;html=1;fillColor=#d5e8d4;strokeColor=#82b366;" parent="WIyWlLk6GJQsqaUBKTNV-1" vertex="1">
          <mxGeometry x="340" y="580" width="60" height="30" as="geometry"/>
        </mxCell>
        <mxCell id="0NTEbmVAoTEjCiHu5IEs-77" value="date of birth" style="ellipse;whiteSpace=wrap;html=1;fillColor=#d5e8d4;strokeColor=#82b366;" parent="WIyWlLk6GJQsqaUBKTNV-1" vertex="1">
          <mxGeometry x="395" y="600" width="70" height="30" as="geometry"/>
        </mxCell>
        <mxCell id="0NTEbmVAoTEjCiHu5IEs-78" value="age" style="ellipse;whiteSpace=wrap;html=1;fillColor=#d5e8d4;strokeColor=#82b366;" parent="WIyWlLk6GJQsqaUBKTNV-1" vertex="1">
          <mxGeometry x="470" y="585" width="40" height="20" as="geometry"/>
        </mxCell>
        <mxCell id="0NTEbmVAoTEjCiHu5IEs-79" value="phone number" style="ellipse;whiteSpace=wrap;html=1;fillColor=#d5e8d4;strokeColor=#82b366;" parent="WIyWlLk6GJQsqaUBKTNV-1" vertex="1">
          <mxGeometry x="220" y="560" width="70" height="40" as="geometry"/>
        </mxCell>
        <mxCell id="0NTEbmVAoTEjCiHu5IEs-80" value="gender" style="ellipse;whiteSpace=wrap;html=1;fillColor=#d5e8d4;strokeColor=#82b366;" parent="WIyWlLk6GJQsqaUBKTNV-1" vertex="1">
          <mxGeometry x="520" y="565" width="50" height="20" as="geometry"/>
        </mxCell>
        <mxCell id="0NTEbmVAoTEjCiHu5IEs-83" value="" style="endArrow=none;html=1;entryX=0;entryY=0.75;entryDx=0;entryDy=0;exitX=1;exitY=0;exitDx=0;exitDy=0;" parent="WIyWlLk6GJQsqaUBKTNV-1" source="0NTEbmVAoTEjCiHu5IEs-79" target="0NTEbmVAoTEjCiHu5IEs-73" edge="1">
          <mxGeometry width="50" height="50" relative="1" as="geometry">
            <mxPoint x="700" y="400.01" as="sourcePoint"/>
            <mxPoint x="690" y="350" as="targetPoint"/>
          </mxGeometry>
        </mxCell>
        <mxCell id="0NTEbmVAoTEjCiHu5IEs-84" value="" style="endArrow=none;html=1;entryX=0;entryY=1;entryDx=0;entryDy=0;exitX=0.5;exitY=0;exitDx=0;exitDy=0;" parent="WIyWlLk6GJQsqaUBKTNV-1" source="0NTEbmVAoTEjCiHu5IEs-75" target="0NTEbmVAoTEjCiHu5IEs-73" edge="1">
          <mxGeometry width="50" height="50" relative="1" as="geometry">
            <mxPoint x="710" y="410.01" as="sourcePoint"/>
            <mxPoint x="700" y="360" as="targetPoint"/>
          </mxGeometry>
        </mxCell>
        <mxCell id="0NTEbmVAoTEjCiHu5IEs-85" value="" style="endArrow=none;html=1;entryX=0.25;entryY=1;entryDx=0;entryDy=0;exitX=0.5;exitY=0;exitDx=0;exitDy=0;" parent="WIyWlLk6GJQsqaUBKTNV-1" source="0NTEbmVAoTEjCiHu5IEs-76" target="0NTEbmVAoTEjCiHu5IEs-73" edge="1">
          <mxGeometry width="50" height="50" relative="1" as="geometry">
            <mxPoint x="720" y="420.01" as="sourcePoint"/>
            <mxPoint x="710" y="370" as="targetPoint"/>
          </mxGeometry>
        </mxCell>
        <mxCell id="0NTEbmVAoTEjCiHu5IEs-86" value="" style="endArrow=none;html=1;entryX=0.5;entryY=1;entryDx=0;entryDy=0;exitX=0.5;exitY=0;exitDx=0;exitDy=0;" parent="WIyWlLk6GJQsqaUBKTNV-1" source="0NTEbmVAoTEjCiHu5IEs-77" target="0NTEbmVAoTEjCiHu5IEs-73" edge="1">
          <mxGeometry width="50" height="50" relative="1" as="geometry">
            <mxPoint x="730" y="430.01" as="sourcePoint"/>
            <mxPoint x="720" y="380" as="targetPoint"/>
          </mxGeometry>
        </mxCell>
        <mxCell id="0NTEbmVAoTEjCiHu5IEs-87" value="" style="endArrow=none;html=1;entryX=0.75;entryY=1;entryDx=0;entryDy=0;exitX=0.5;exitY=0;exitDx=0;exitDy=0;" parent="WIyWlLk6GJQsqaUBKTNV-1" source="0NTEbmVAoTEjCiHu5IEs-78" target="0NTEbmVAoTEjCiHu5IEs-73" edge="1">
          <mxGeometry width="50" height="50" relative="1" as="geometry">
            <mxPoint x="740" y="440.01" as="sourcePoint"/>
            <mxPoint x="730" y="390" as="targetPoint"/>
          </mxGeometry>
        </mxCell>
        <mxCell id="0NTEbmVAoTEjCiHu5IEs-88" value="" style="endArrow=none;html=1;entryX=1;entryY=1;entryDx=0;entryDy=0;exitX=0.5;exitY=0;exitDx=0;exitDy=0;" parent="WIyWlLk6GJQsqaUBKTNV-1" source="0NTEbmVAoTEjCiHu5IEs-80" target="0NTEbmVAoTEjCiHu5IEs-73" edge="1">
          <mxGeometry width="50" height="50" relative="1" as="geometry">
            <mxPoint x="750" y="450.01" as="sourcePoint"/>
            <mxPoint x="740" y="400" as="targetPoint"/>
          </mxGeometry>
        </mxCell>
        <mxCell id="0NTEbmVAoTEjCiHu5IEs-89" value="diagnose" style="rhombus;whiteSpace=wrap;html=1;fillColor=#dae8fc;strokeColor=#6c8ebf;" parent="WIyWlLk6GJQsqaUBKTNV-1" vertex="1">
          <mxGeometry x="190" y="450" width="80" height="50" as="geometry"/>
        </mxCell>
        <mxCell id="0NTEbmVAoTEjCiHu5IEs-90" value="" style="endArrow=none;html=1;entryX=1;entryY=0.5;entryDx=0;entryDy=0;exitX=0;exitY=0.5;exitDx=0;exitDy=0;" parent="WIyWlLk6GJQsqaUBKTNV-1" source="0NTEbmVAoTEjCiHu5IEs-89" target="0NTEbmVAoTEjCiHu5IEs-41" edge="1">
          <mxGeometry width="50" height="50" relative="1" as="geometry">
            <mxPoint x="760" y="460.01" as="sourcePoint"/>
            <mxPoint x="750" y="410" as="targetPoint"/>
          </mxGeometry>
        </mxCell>
        <mxCell id="0NTEbmVAoTEjCiHu5IEs-91" value="" style="endArrow=none;html=1;entryX=1;entryY=0.5;entryDx=0;entryDy=0;exitX=0;exitY=0.5;exitDx=0;exitDy=0;" parent="WIyWlLk6GJQsqaUBKTNV-1" source="0NTEbmVAoTEjCiHu5IEs-73" target="0NTEbmVAoTEjCiHu5IEs-89" edge="1">
          <mxGeometry width="50" height="50" relative="1" as="geometry">
            <mxPoint x="770" y="470.01" as="sourcePoint"/>
            <mxPoint x="760" y="420" as="targetPoint"/>
          </mxGeometry>
        </mxCell>
        <mxCell id="0NTEbmVAoTEjCiHu5IEs-92" value="pays for" style="rhombus;whiteSpace=wrap;html=1;fillColor=#dae8fc;strokeColor=#6c8ebf;" parent="WIyWlLk6GJQsqaUBKTNV-1" vertex="1">
          <mxGeometry x="505" y="475" width="80" height="40" as="geometry"/>
        </mxCell>
        <mxCell id="0NTEbmVAoTEjCiHu5IEs-93" value="" style="endArrow=none;html=1;entryX=1;entryY=0.5;entryDx=0;entryDy=0;exitX=0;exitY=0.5;exitDx=0;exitDy=0;" parent="WIyWlLk6GJQsqaUBKTNV-1" source="0NTEbmVAoTEjCiHu5IEs-92" target="0NTEbmVAoTEjCiHu5IEs-73" edge="1">
          <mxGeometry width="50" height="50" relative="1" as="geometry">
            <mxPoint x="490" y="495" as="sourcePoint"/>
            <mxPoint x="770" y="430" as="targetPoint"/>
            <Array as="points"/>
          </mxGeometry>
        </mxCell>
        <mxCell id="0NTEbmVAoTEjCiHu5IEs-94" value="medicine" style="rounded=0;whiteSpace=wrap;html=1;fillColor=#f8cecc;strokeColor=#b85450;" parent="WIyWlLk6GJQsqaUBKTNV-1" vertex="1">
          <mxGeometry x="630" y="480" width="90" height="30" as="geometry"/>
        </mxCell>
        <mxCell id="0NTEbmVAoTEjCiHu5IEs-95" value="" style="endArrow=none;html=1;entryX=1;entryY=0.5;entryDx=0;entryDy=0;" parent="WIyWlLk6GJQsqaUBKTNV-1" source="0NTEbmVAoTEjCiHu5IEs-94" target="0NTEbmVAoTEjCiHu5IEs-92" edge="1">
          <mxGeometry width="50" height="50" relative="1" as="geometry">
            <mxPoint x="580" y="495" as="sourcePoint"/>
            <mxPoint x="780" y="440" as="targetPoint"/>
          </mxGeometry>
        </mxCell>
        <mxCell id="0NTEbmVAoTEjCiHu5IEs-97" value="price" style="ellipse;whiteSpace=wrap;html=1;fillColor=#d5e8d4;strokeColor=#82b366;" parent="WIyWlLk6GJQsqaUBKTNV-1" vertex="1">
          <mxGeometry x="585" y="575" width="50" height="30" as="geometry"/>
        </mxCell>
        <mxCell id="0NTEbmVAoTEjCiHu5IEs-98" value="quantity" style="ellipse;whiteSpace=wrap;html=1;fillColor=#d5e8d4;strokeColor=#82b366;" parent="WIyWlLk6GJQsqaUBKTNV-1" vertex="1">
          <mxGeometry x="660" y="570" width="50" height="40" as="geometry"/>
        </mxCell>
        <mxCell id="0NTEbmVAoTEjCiHu5IEs-99" value="code" style="ellipse;whiteSpace=wrap;html=1;fillColor=#d5e8d4;strokeColor=#82b366;" parent="WIyWlLk6GJQsqaUBKTNV-1" vertex="1">
          <mxGeometry x="730" y="575" width="40" height="30" as="geometry"/>
        </mxCell>
        <mxCell id="0NTEbmVAoTEjCiHu5IEs-100" value="" style="endArrow=none;html=1;entryX=0.25;entryY=1;entryDx=0;entryDy=0;exitX=0.5;exitY=0;exitDx=0;exitDy=0;" parent="WIyWlLk6GJQsqaUBKTNV-1" source="0NTEbmVAoTEjCiHu5IEs-97" target="0NTEbmVAoTEjCiHu5IEs-94" edge="1">
          <mxGeometry width="50" height="50" relative="1" as="geometry">
            <mxPoint x="800" y="500.01" as="sourcePoint"/>
            <mxPoint x="790" y="450" as="targetPoint"/>
          </mxGeometry>
        </mxCell>
        <mxCell id="0NTEbmVAoTEjCiHu5IEs-101" value="" style="endArrow=none;html=1;entryX=0.5;entryY=1;entryDx=0;entryDy=0;exitX=0.5;exitY=0;exitDx=0;exitDy=0;" parent="WIyWlLk6GJQsqaUBKTNV-1" source="0NTEbmVAoTEjCiHu5IEs-98" target="0NTEbmVAoTEjCiHu5IEs-94" edge="1">
          <mxGeometry width="50" height="50" relative="1" as="geometry">
            <mxPoint x="810" y="510.01" as="sourcePoint"/>
            <mxPoint x="800" y="460" as="targetPoint"/>
          </mxGeometry>
        </mxCell>
        <mxCell id="0NTEbmVAoTEjCiHu5IEs-102" value="" style="endArrow=none;html=1;entryX=0.75;entryY=1;entryDx=0;entryDy=0;exitX=0.5;exitY=0;exitDx=0;exitDy=0;" parent="WIyWlLk6GJQsqaUBKTNV-1" source="0NTEbmVAoTEjCiHu5IEs-99" target="0NTEbmVAoTEjCiHu5IEs-94" edge="1">
          <mxGeometry width="50" height="50" relative="1" as="geometry">
            <mxPoint x="820" y="520.01" as="sourcePoint"/>
            <mxPoint x="810" y="470" as="targetPoint"/>
          </mxGeometry>
        </mxCell>
        <mxCell id="IxQTWvL-M54z_WdvvcxN-0" value="presctiption" style="ellipse;whiteSpace=wrap;html=1;fillColor=#d5e8d4;strokeColor=#82b366;" vertex="1" parent="WIyWlLk6GJQsqaUBKTNV-1">
          <mxGeometry x="195" y="380" width="70" height="40" as="geometry"/>
        </mxCell>
        <mxCell id="IxQTWvL-M54z_WdvvcxN-1" value="" style="endArrow=none;html=1;entryX=0.5;entryY=1;entryDx=0;entryDy=0;exitX=0.5;exitY=0;exitDx=0;exitDy=0;" edge="1" parent="WIyWlLk6GJQsqaUBKTNV-1" source="0NTEbmVAoTEjCiHu5IEs-89" target="IxQTWvL-M54z_WdvvcxN-0">
          <mxGeometry width="50" height="50" relative="1" as="geometry">
            <mxPoint x="-40" y="760" as="sourcePoint"/>
            <mxPoint x="10" y="710" as="targetPoint"/>
          </mxGeometry>
        </mxCell>
        <mxCell id="IxQTWvL-M54z_WdvvcxN-2" value="start date" style="ellipse;whiteSpace=wrap;html=1;fillColor=#d5e8d4;strokeColor=#82b366;" vertex="1" parent="WIyWlLk6GJQsqaUBKTNV-1">
          <mxGeometry x="300" y="405" width="58.25" height="30" as="geometry"/>
        </mxCell>
        <mxCell id="IxQTWvL-M54z_WdvvcxN-3" value="end date" style="ellipse;whiteSpace=wrap;html=1;fillColor=#d5e8d4;strokeColor=#82b366;" vertex="1" parent="WIyWlLk6GJQsqaUBKTNV-1">
          <mxGeometry x="470" y="405" width="60" height="30" as="geometry"/>
        </mxCell>
        <mxCell id="IxQTWvL-M54z_WdvvcxN-5" value="" style="endArrow=none;html=1;entryX=1;entryY=0.5;entryDx=0;entryDy=0;exitX=0;exitY=0.5;exitDx=0;exitDy=0;" edge="1" parent="WIyWlLk6GJQsqaUBKTNV-1" source="0NTEbmVAoTEjCiHu5IEs-71" target="IxQTWvL-M54z_WdvvcxN-2">
          <mxGeometry width="50" height="50" relative="1" as="geometry">
            <mxPoint x="-40" y="760" as="sourcePoint"/>
            <mxPoint x="10" y="710" as="targetPoint"/>
          </mxGeometry>
        </mxCell>
        <mxCell id="IxQTWvL-M54z_WdvvcxN-6" value="" style="endArrow=none;html=1;entryX=1;entryY=0.5;entryDx=0;entryDy=0;exitX=0;exitY=0.5;exitDx=0;exitDy=0;" edge="1" parent="WIyWlLk6GJQsqaUBKTNV-1" source="IxQTWvL-M54z_WdvvcxN-3" target="0NTEbmVAoTEjCiHu5IEs-71">
          <mxGeometry width="50" height="50" relative="1" as="geometry">
            <mxPoint x="-40" y="760" as="sourcePoint"/>
            <mxPoint x="10" y="710" as="targetPoint"/>
          </mxGeometry>
        </mxCell>
      </root>
    </mxGraphModel>
  </diagram>
</mxfile>
